<?xml version="1.0" encoding="utf-8"?>
<!-- Generator: Adobe Illustrator 22.1.0, SVG Export Plug-In . SVG Version: 6.00 Build 0)  -->
<svg version="1.1" id="Layer_1" xmlns="http://www.w3.org/2000/svg" xmlns:xlink="http://www.w3.org/1999/xlink" x="0px" y="0px"
	 viewBox="0 0 100 100" style="enable-background:new 0 0 100 100;" xml:space="preserve">
<style type="text/css">
	.st0{fill:#1C1610;}
</style>
<path class="st0" d="M91.2,66.4h-2.8c-1.3,0-2.4-1.1-2.4-2.4V43.7c0-1.3,1.1-2.4,2.4-2.4h2.8c1.3,0,2.4,1.1,2.4,2.4V64
	C93.7,65.3,92.6,66.4,91.2,66.4z"/>
<path class="st0" d="M84.8,27v7.2c0,0.6-0.5,1.1-1.1,1.1H56c-0.6,0-1.1,0.5-1.1,1.1v7.9c0,0.6,0.5,1.1,1.1,1.1h27.4
	c0.6,0,1.1,0.5,1.1,1.1l-0.3,18.3c0,0.6-0.5,1.1-1.1,1.1H32c-0.6,0-1.1-0.5-1.1-1.1V60c0-0.4,0.3-0.6,0.6-0.6l44.8,0
	c0.6,0,1.1-0.5,1-1.1l-0.1-3.4c0-0.6-0.5-1.1-1.1-1.1L48.4,54c-0.6,0-1.1-0.5-1.1-1.1V27c0-0.6,0.5-1.1,1.1-1.1h35.4
	C84.3,25.9,84.8,26.4,84.8,27z"/>
<path class="st0" d="M6.3,26.7v8.3c0,0.4,0.3,0.7,0.7,0.7h28.5c0.4,0,0.7,0.3,0.7,0.7v8.3c0,0.4-0.3,0.7-0.7,0.7H7
	c-0.4,0-0.7,0.3-0.7,0.7v19.1l0,0c0,0.4,0.3,0.7,0.7,0.7h14.2c0.4,0,0.7-0.3,0.7-0.7v-5.1c0-0.4-0.3-0.7-0.7-0.7l-6.7-0.1
	c-0.4,0-0.7-0.3-0.7-0.7l-0.1-4c0-0.4,0.3-0.7,0.7-0.7L43.1,54c0.4,0,0.7-0.3,0.7-0.7V26.7c0-0.4-0.3-0.7-0.7-0.7H7
	C6.6,25.9,6.3,26.3,6.3,26.7z"/>
<path class="st0" d="M28,65.9h-2.3c-1.1,0-2-0.9-2-2v-2.5c0-1.1,0.9-2,2-2H28c1.1,0,2,0.9,2,2v2.5C29.9,65,29.1,65.9,28,65.9z"/>
<g>
	<path class="st0" d="M89.8,28.8h2.9c0.4,0,0.8-0.4,0.8-0.8v-1.3c0-0.4-0.4-0.8-0.8-0.8h-5c-0.4,0-0.8,0.4-0.8,0.8V32
		c0,0.4,0.4,0.8,0.8,0.8h2.6c0.4,0,0.8,0.4,0.8,0.8v1.3c0,0.4-0.4,0.8-0.8,0.8h-2.6c-0.4,0-0.8,0.4-0.8,0.8V37
		c0,0.4,0.4,0.8,0.8,0.8h5c0.4,0,0.8-0.4,0.8-0.8v-4.5c0-0.4-0.4-0.8-0.8-0.8h-2.9c-0.4,0-0.8-0.4-0.8-0.8v-1.3
		C89,29.2,89.3,28.8,89.8,28.8z"/>
</g>
</svg>
